# xmcd
#
# Track frame offsets:
#	150
#	20825
#	39162
#	59337
#	82337
#	98967
#	119925
#	134587
#	150850
#	172100
#	190087
#
# Disc length: 2774 seconds
#
# Revision: 1
# Processed by: cddbd v1.5PL3 Copyright (c) Steve Scherf et al.
# Submitted via: CDex 1.50Beta5
#
DISCID=9b0ad40b
DTITLE=河田純子 - Jun mind
DYEAR=1900
DGENRE=Pop
TTITLE0=Wake Up Mind
TTITLE1=MAXIMUM!
TTITLE2=シ・ン・ユ・ウ
TTITLE3=初めての夏
TTITLE4=架空の恋人たち
TTITLE5=雨あがりはミント色
TTITLE6=三人の週末
TTITLE7=放課後シャッフル
TTITLE8=ピリオド
TTITLE9=Rock'n heart
TTITLE10=あなたにめぐり逢えて
EXTD=
EXTT0=
EXTT1=
EXTT2=
EXTT3=
EXTT4=
EXTT5=
EXTT6=
EXTT7=
EXTT8=
EXTT9=
EXTT10=
PLAYORDER=
